<svg width="1440" height="268" viewBox="0 0 1440 268" fill="none" xmlns="http://www.w3.org/2000/svg">
<path d="M0 0L96.8565 35.5334C157.392 57.7419 224.068 56.3606 283.632 31.6639V31.6639C333.289 11.0751 388.155 6.59064 440.496 18.8428L467.135 25.0785C517.664 36.9067 570.272 36.642 620.68 24.3059L635.348 20.7163C690.488 7.22234 748.421 10.7415 801.522 30.8106V30.8106C866.225 55.2648 937.674 55 1002.19 30.067L1004.45 29.1952C1053.85 10.1036 1107.57 5.03636 1159.68 14.553L1189.03 19.915C1235.63 28.4255 1283.38 28.4489 1329.98 19.984L1440 0V261H0V0Z" fill="#E8E4DE"/>
<path d="M0 96.3699L47.2197 82.7737C123.434 60.8291 204.655 63.7174 279.117 91.0203L315.307 104.29C381.978 128.736 455.491 126.638 520.659 98.4294V98.4294C586.77 69.8125 661.431 68.0829 728.797 93.6076L774.023 110.744C828.975 131.565 887.871 139.901 946.442 135.147L1017.38 129.39C1055.31 126.312 1092.69 118.443 1128.64 105.971V105.971C1225.94 72.2158 1331.86 72.8028 1428.77 107.635L1440 111.67V261.821L0 268V96.3699Z" fill="#2252E1"/>
</svg>
